<svg id="visual" viewBox="0 0 900 600" width="900" height="600" xmlns="http://www.w3.org/2000/svg" xmlns:xlink="http://www.w3.org/1999/xlink" version="1.1"><rect x="0" y="0" width="900" height="600" fill="#040404"></rect><path d="M0 438L113 400L225 389L338 384L450 389L563 426L675 399L788 425L900 421L900 601L788 601L675 601L563 601L450 601L338 601L225 601L113 601L0 601Z" fill="#bb0404"></path><path d="M0 429L113 451L225 469L338 449L450 424L563 472L675 453L788 424L900 433L900 601L788 601L675 601L563 601L450 601L338 601L225 601L113 601L0 601Z" fill="#ab0405"></path><path d="M0 466L113 467L225 475L338 487L450 463L563 456L675 500L788 471L900 492L900 601L788 601L675 601L563 601L450 601L338 601L225 601L113 601L0 601Z" fill="#9b0406"></path><path d="M0 504L113 506L225 505L338 520L450 509L563 495L675 516L788 498L900 532L900 601L788 601L675 601L563 601L450 601L338 601L225 601L113 601L0 601Z" fill="#8b0405"></path><path d="M0 535L113 554L225 540L338 560L450 539L563 541L675 548L788 534L900 534L900 601L788 601L675 601L563 601L450 601L338 601L225 601L113 601L0 601Z" fill="#7c0404"></path></svg>