<?xml version="1.0" encoding="UTF-8" standalone="no"?><!-- Generator: Gravit.io --><svg xmlns="http://www.w3.org/2000/svg" xmlns:xlink="http://www.w3.org/1999/xlink" style="isolation:isolate" viewBox="0 0 140 140" width="140pt" height="140pt"><defs><clipPath id="_clipPath_xGASYfaVjwZHxe0kvApfbrW4Atcylg5J"><rect width="140" height="140"/></clipPath></defs><g clip-path="url(#_clipPath_xGASYfaVjwZHxe0kvApfbrW4Atcylg5J)"><mask id="_mask_73dqphNAoQ0mdU8Zp8UoKS55fiJZZGJ2"><rect x="0" y="0" width="140" height="140" fill="white" stroke="none"/></mask><rect x="0" y="0" width="140" height="140" transform="matrix(1,0,0,1,0,0)" fill="rgb(255,255,255)"/><rect x="0" y="0" width="140" height="140" transform="matrix(1,0,0,1,0,0)" fill="rgb(255,255,255)" mask="url(#_mask_73dqphNAoQ0mdU8Zp8UoKS55fiJZZGJ2)" vector-effect="non-scaling-stroke" stroke-width="2" stroke="rgb(0,0,0)" stroke-linejoin="miter" stroke-linecap="square" stroke-miterlimit="2"/><circle vector-effect="non-scaling-stroke" cx="70.00000000000057" cy="70.00000000000011" r="19.999999999999975" fill="rgb(255,0,0)"/><circle vector-effect="non-scaling-stroke" cx="30.00000000000034" cy="94.99999999999977" r="19.99999999999995" fill="rgb(0,0,0)"/><path d=" M 19.202 108.701 C 15.718 109.207 19.487 109.605 24.269 113.559 C 24.599 113.832 25.592 114.142 25.923 114.45 C 26.308 114.809 26.377 115.632 26.75 116.041 C 26.931 116.975 24.601 119.385 24.563 119.493 C 13.258 134.055 28.966 133.312 45.647 106.535 Q 30.235 107.1 19.202 108.701 Z " fill="rgb(0,0,0)" vector-effect="non-scaling-stroke" stroke-width="1" stroke="rgb(0,0,0)" stroke-linejoin="miter" stroke-linecap="square" stroke-miterlimit="3"/><circle vector-effect="non-scaling-stroke" cx="110" cy="94.99999999999977" r="19.999999999999943" fill="rgb(0,0,0)"/><path d=" M 120.798 108.701 C 124.282 109.207 120.513 109.605 115.731 113.559 C 115.401 113.832 114.408 114.142 114.077 114.45 C 113.692 114.809 113.623 115.632 113.25 116.041 C 113.069 116.975 115.399 119.385 115.437 119.493 C 126.742 134.055 111.034 133.312 94.353 106.535 Q 109.765 107.1 120.798 108.701 Z " fill="rgb(0,0,0)" vector-effect="non-scaling-stroke" stroke-width="1" stroke="rgb(0,0,0)" stroke-linejoin="miter" stroke-linecap="square" stroke-miterlimit="3"/><path d=" M 130 45 C 130 56.038 121.038 65 110 65 C 98.962 65 90 56.038 90 45 C 90 33.962 98.962 25 110 25 C 121.038 25 130 33.962 130 45 Z " fill="rgb(0,0,0)"/><path d=" M 120.798 31.299 C 124.282 30.793 120.513 30.395 115.731 26.441 C 115.401 26.168 114.408 25.858 114.077 25.55 C 113.692 25.191 113.623 24.368 113.25 23.959 C 113.069 23.025 115.399 20.615 115.437 20.507 C 126.742 5.945 111.034 6.688 94.353 33.465 Q 109.765 32.9 120.798 31.299 Z " fill="rgb(0,0,0)" vector-effect="non-scaling-stroke" stroke-width="1" stroke="rgb(0,0,0)" stroke-linejoin="miter" stroke-linecap="square" stroke-miterlimit="3"/><path d=" M 10 45 C 10 56.038 18.962 65 30 65 C 41.038 65 50 56.038 50 45 C 50 33.962 41.038 25 30 25 C 18.962 25 10 33.962 10 45 Z " fill="rgb(0,0,0)"/><path d=" M 19.202 31.299 C 15.718 30.793 19.487 30.395 24.269 26.441 C 24.599 26.168 25.592 25.858 25.923 25.55 C 26.308 25.191 26.377 24.368 26.75 23.959 C 26.931 23.025 24.601 20.615 24.563 20.507 C 13.258 5.945 28.966 6.688 45.647 33.465 Q 30.235 32.9 19.202 31.299 Z " fill="rgb(0,0,0)" vector-effect="non-scaling-stroke" stroke-width="1" stroke="rgb(0,0,0)" stroke-linejoin="miter" stroke-linecap="square" stroke-miterlimit="3"/></g></svg>