<?xml version="1.0" encoding="UTF-8" standalone="no"?><!-- Generator: Gravit.io --><svg xmlns="http://www.w3.org/2000/svg" xmlns:xlink="http://www.w3.org/1999/xlink" style="isolation:isolate" viewBox="0 0 140 140" width="140pt" height="140pt"><defs><clipPath id="_clipPath_NL8giD29kl7VCnkMKhthjzfd62Q8Crpm"><rect width="140" height="140"/></clipPath></defs><g clip-path="url(#_clipPath_NL8giD29kl7VCnkMKhthjzfd62Q8Crpm)"><mask id="_mask_jgRc0hBTuYot7sSiC7WK1VJtzoK1V8jU"><rect x="0" y="0" width="140" height="140" fill="white" stroke="none"/></mask><rect x="0" y="0" width="140" height="140" transform="matrix(1,0,0,1,0,0)" fill="rgb(255,255,255)"/><rect x="0" y="0" width="140" height="140" transform="matrix(1,0,0,1,0,0)" fill="rgb(255,255,255)" mask="url(#_mask_jgRc0hBTuYot7sSiC7WK1VJtzoK1V8jU)" vector-effect="non-scaling-stroke" stroke-width="2" stroke="rgb(0,0,0)" stroke-linejoin="miter" stroke-linecap="square" stroke-miterlimit="2"/><circle vector-effect="non-scaling-stroke" cx="45.000000000000114" cy="45.00000000000023" r="19.999999999999975" fill="rgb(255,0,0)"/><circle vector-effect="non-scaling-stroke" cx="44.999999999999886" cy="95" r="19.999999999999947" fill="rgb(0,0,0)"/><path d=" M 34.202 108.701 C 30.718 109.207 34.487 109.605 39.269 113.559 C 39.599 113.832 40.592 114.142 40.923 114.45 C 41.308 114.809 41.377 115.632 41.75 116.041 C 41.931 116.975 39.601 119.385 39.563 119.493 C 28.258 134.055 43.966 133.312 60.647 106.535 Q 45.235 107.1 34.202 108.701 Z " fill="rgb(0,0,0)" vector-effect="non-scaling-stroke" stroke-width="1" stroke="rgb(0,0,0)" stroke-linejoin="miter" stroke-linecap="square" stroke-miterlimit="3"/><path d=" M 115 95 C 115 106.038 106.038 115 95 115 C 83.962 115 75 106.038 75 95 C 75 83.962 83.962 75 95 75 C 106.038 75 115 83.962 115 95 Z " fill="rgb(255,0,0)"/><path d=" M 115 45 C 115 56.038 106.038 65 95 65 C 83.962 65 75 56.038 75 45 C 75 33.962 83.962 25 95 25 C 106.038 25 115 33.962 115 45 Z " fill="rgb(0,0,0)"/><path d=" M 105.798 31.299 C 109.282 30.793 105.513 30.395 100.731 26.441 C 100.401 26.168 99.408 25.858 99.077 25.55 C 98.692 25.191 98.623 24.368 98.25 23.959 C 98.069 23.025 100.399 20.615 100.437 20.507 C 111.742 5.945 96.034 6.688 79.353 33.465 Q 94.765 32.9 105.798 31.299 Z " fill="rgb(0,0,0)" vector-effect="non-scaling-stroke" stroke-width="1" stroke="rgb(0,0,0)" stroke-linejoin="miter" stroke-linecap="square" stroke-miterlimit="3"/></g></svg>