<?xml version="1.0" encoding="UTF-8" standalone="no"?><!-- Generator: Gravit.io --><svg xmlns="http://www.w3.org/2000/svg" xmlns:xlink="http://www.w3.org/1999/xlink" style="isolation:isolate" viewBox="0 0 140 140" width="140pt" height="140pt"><defs><clipPath id="_clipPath_4hXDVz04Sgm3bjlkly3tgLTMkeMlf8h4"><rect width="140" height="140"/></clipPath></defs><g clip-path="url(#_clipPath_4hXDVz04Sgm3bjlkly3tgLTMkeMlf8h4)"><mask id="_mask_OwnJqYXxNk9RvIfyRqaPL8yAmvmxJNDP"><rect x="0" y="0" width="140" height="140" fill="white" stroke="none"/></mask><rect x="0" y="0" width="140" height="140" transform="matrix(1,0,0,1,0,0)" fill="rgb(255,255,255)"/><rect x="0" y="0" width="140" height="140" transform="matrix(1,0,0,1,0,0)" fill="rgb(255,255,255)" mask="url(#_mask_OwnJqYXxNk9RvIfyRqaPL8yAmvmxJNDP)" vector-effect="non-scaling-stroke" stroke-width="2" stroke="rgb(0,0,0)" stroke-linejoin="miter" stroke-linecap="square" stroke-miterlimit="2"/><circle vector-effect="non-scaling-stroke" cx="40.000000000000114" cy="96.05180247812734" r="19.99999999999995" fill="rgb(0,0,0)"/><path d=" M 29.202 109.753 C 25.718 110.259 29.487 110.657 34.269 114.611 C 34.599 114.884 35.592 115.194 35.923 115.502 C 36.308 115.86 36.377 116.683 36.75 117.093 C 36.931 118.026 34.601 120.437 34.563 120.545 C 23.258 135.107 38.966 134.364 55.647 107.587 Q 40.235 108.152 29.202 109.753 Z " fill="rgb(0,0,0)" vector-effect="non-scaling-stroke" stroke-width="1" stroke="rgb(0,0,0)" stroke-linejoin="miter" stroke-linecap="square" stroke-miterlimit="3"/><path d=" M 120 43.948 C 120 54.986 111.038 63.948 100 63.948 C 88.962 63.948 80 54.986 80 43.948 C 80 32.91 88.962 23.948 100 23.948 C 111.038 23.948 120 32.91 120 43.948 Z " fill="rgb(0,0,0)"/><path d=" M 110.798 30.247 C 114.282 29.741 110.513 29.343 105.731 25.389 C 105.401 25.116 104.408 24.806 104.077 24.498 C 103.692 24.14 103.623 23.317 103.25 22.907 C 103.069 21.974 105.399 19.563 105.437 19.455 C 116.742 4.893 101.034 5.636 84.353 32.413 Q 99.765 31.848 110.798 30.247 Z " fill="rgb(0,0,0)" vector-effect="non-scaling-stroke" stroke-width="1" stroke="rgb(0,0,0)" stroke-linejoin="miter" stroke-linecap="square" stroke-miterlimit="3"/></g></svg>