<?xml version="1.0" encoding="UTF-8" standalone="no"?><!-- Generator: Gravit.io --><svg xmlns="http://www.w3.org/2000/svg" xmlns:xlink="http://www.w3.org/1999/xlink" style="isolation:isolate" viewBox="0 0 140 140" width="140pt" height="140pt"><defs><clipPath id="_clipPath_otlJDh0PJDNXAfaykofBYZ0ON8lFhzAZ"><rect width="140" height="140"/></clipPath></defs><g clip-path="url(#_clipPath_otlJDh0PJDNXAfaykofBYZ0ON8lFhzAZ)"><mask id="_mask_JeIAFRJpqQceVpLXCAnYMHWmaEX4ZTOv"><rect x="0" y="0" width="140" height="140" fill="white" stroke="none"/></mask><rect x="0" y="0" width="140" height="140" transform="matrix(1,0,0,1,0,0)" fill="rgb(255,255,255)"/><rect x="0" y="0" width="140" height="140" transform="matrix(1,0,0,1,0,0)" fill="rgb(255,255,255)" mask="url(#_mask_JeIAFRJpqQceVpLXCAnYMHWmaEX4ZTOv)" vector-effect="non-scaling-stroke" stroke-width="2" stroke="rgb(0,0,0)" stroke-linejoin="miter" stroke-linecap="square" stroke-miterlimit="2"/><circle vector-effect="non-scaling-stroke" cx="70.00000000000011" cy="70.00000000000011" r="19.999999999999975" fill="rgb(255,0,0)"/><circle vector-effect="non-scaling-stroke" cx="30.000000000000227" cy="94.99999999999989" r="19.99999999999995" fill="rgb(0,0,0)"/><path d=" M 19.202 108.701 C 15.718 109.207 19.487 109.605 24.269 113.559 C 24.599 113.832 25.592 114.142 25.923 114.45 C 26.308 114.809 26.377 115.632 26.75 116.041 C 26.931 116.975 24.601 119.385 24.563 119.493 C 13.258 134.055 28.966 133.312 45.647 106.535 Q 30.235 107.1 19.202 108.701 Z " fill="rgb(0,0,0)" vector-effect="non-scaling-stroke" stroke-width="1" stroke="rgb(0,0,0)" stroke-linejoin="miter" stroke-linecap="square" stroke-miterlimit="3"/><path d=" M 130 45 C 130 56.038 121.038 65 110 65 C 98.962 65 90 56.038 90 45 C 90 33.962 98.962 25 110 25 C 121.038 25 130 33.962 130 45 Z " fill="rgb(0,0,0)"/><path d=" M 120.798 31.299 C 124.282 30.793 120.513 30.395 115.731 26.441 C 115.401 26.168 114.408 25.858 114.077 25.55 C 113.692 25.191 113.623 24.368 113.25 23.959 C 113.069 23.025 115.399 20.615 115.437 20.507 C 126.742 5.945 111.034 6.688 94.353 33.465 Q 109.765 32.9 120.798 31.299 Z " fill="rgb(0,0,0)" vector-effect="non-scaling-stroke" stroke-width="1" stroke="rgb(0,0,0)" stroke-linejoin="miter" stroke-linecap="square" stroke-miterlimit="3"/></g></svg>