<?xml version="1.0" encoding="UTF-8" standalone="no"?><!-- Generator: Gravit.io --><svg xmlns="http://www.w3.org/2000/svg" xmlns:xlink="http://www.w3.org/1999/xlink" style="isolation:isolate" viewBox="580.25 264.25 130.401 153.15" width="130.401pt" height="153.15pt"><defs><clipPath id="_clipPath_HSu2o1fI9pQYKoWR3K83gAV6dXLYY1pA"><rect x="580.25" y="264.25" width="130.401" height="153.15"/></clipPath></defs><g clip-path="url(#_clipPath_HSu2o1fI9pQYKoWR3K83gAV6dXLYY1pA)"><path d="M 592.446 264.25 L 698.454 264.25 C 705.185 264.25 710.65 269.715 710.65 276.446 L 710.65 392.054 C 710.65 398.785 705.185 404.25 698.454 404.25 L 592.446 404.25 C 585.715 404.25 580.25 398.785 580.25 392.054 L 580.25 276.446 C 580.25 269.715 585.715 264.25 592.446 264.25 Z" style="stroke:none;fill:#FFFFFF;stroke-miterlimit:10;"/><path d="M 592.446 264.25 L 698.454 264.25 C 705.185 264.25 710.65 269.715 710.65 276.446 L 710.65 392.054 C 710.65 398.785 705.185 404.25 698.454 404.25 L 592.446 404.25 C 585.715 404.25 580.25 398.785 580.25 392.054 L 580.25 276.446 C 580.25 269.715 585.715 264.25 592.446 264.25 Z" style="fill:none;stroke:#000000;stroke-width:2;stroke-linecap:square;stroke-miterlimit:2;"/><circle vector-effect="non-scaling-stroke" cx="620" cy="310" r="20" fill="rgb(255,0,0)"/><circle vector-effect="non-scaling-stroke" cx="620" cy="359.99999999999994" r="20" fill="rgb(0,0,0)"/><path d=" M 609.202 373.701 C 605.718 374.207 609.487 374.605 614.269 378.559 C 614.599 378.832 615.592 379.142 615.923 379.45 C 616.308 379.809 616.377 380.632 616.75 381.041 C 616.931 381.975 614.601 384.385 614.563 384.493 C 603.258 399.055 618.966 398.312 635.647 371.535 Q 620.235 372.1 609.202 373.701 Z " fill="rgb(0,0,0)" vector-effect="non-scaling-stroke" stroke-width="1" stroke="rgb(0,0,0)" stroke-linejoin="miter" stroke-linecap="square" stroke-miterlimit="3"/><path d=" M 690 360 C 690 371.038 681.038 380 670 380 C 658.962 380 650 371.038 650 360 C 650 348.962 658.962 340 670 340 C 681.038 340 690 348.962 690 360 Z " fill="rgb(255,0,0)"/><path d=" M 690 310 C 690 321.038 681.038 330 670 330 C 658.962 330 650 321.038 650 310 C 650 298.962 658.962 290 670 290 C 681.038 290 690 298.962 690 310 Z " fill="rgb(0,0,0)"/><path d=" M 680.798 296.299 C 684.282 295.793 680.513 295.395 675.731 291.441 C 675.401 291.168 674.408 290.858 674.077 290.55 C 673.692 290.191 673.623 289.368 673.25 288.959 C 673.069 288.025 675.399 285.615 675.437 285.507 C 686.742 270.945 671.034 271.688 654.353 298.465 Q 669.765 297.9 680.798 296.299 Z " fill="rgb(0,0,0)" vector-effect="non-scaling-stroke" stroke-width="1" stroke="rgb(0,0,0)" stroke-linejoin="miter" stroke-linecap="square" stroke-miterlimit="3"/></g></svg>