<?xml version="1.0" encoding="UTF-8" standalone="no"?><!-- Generator: Gravit.io --><svg xmlns="http://www.w3.org/2000/svg" xmlns:xlink="http://www.w3.org/1999/xlink" style="isolation:isolate" viewBox="0 0 370 120" width="370pt" height="120pt"><defs><clipPath id="_clipPath_4WSzE42wH049pWYVsJ4mswPmpYvMl9Cz"><rect width="370" height="120"/></clipPath></defs><g clip-path="url(#_clipPath_4WSzE42wH049pWYVsJ4mswPmpYvMl9Cz)"><circle vector-effect="non-scaling-stroke" cx="38.999999999999986" cy="35.000000000000114" r="19.99999999999998" fill="rgb(255,0,0)"/><circle vector-effect="non-scaling-stroke" cx="38.99999999999994" cy="85.00000000000006" r="19.99999999999995" fill="rgb(0,0,0)"/><path d=" M 28.202 98.701 C 24.718 99.207 28.487 99.605 33.269 103.559 C 33.599 103.832 34.592 104.142 34.923 104.45 C 35.308 104.809 35.377 105.632 35.75 106.041 C 35.931 106.975 33.601 109.385 33.563 109.493 C 22.258 124.055 37.966 123.312 54.647 96.535 Q 39.235 97.1 28.202 98.701 Z " fill="rgb(0,0,0)" vector-effect="non-scaling-stroke" stroke-width="1" stroke="rgb(0,0,0)" stroke-linejoin="miter" stroke-linecap="square" stroke-miterlimit="3"/><path d=" M 109 85 C 109 96.038 100.038 105 89 105 C 77.962 105 69 96.038 69 85 C 69 73.962 77.962 65 89 65 C 100.038 65 109 73.962 109 85 Z " fill="rgb(255,0,0)"/><g clip-path="url(#_clipPath_qnwSXtFdCineTSU1SGFOLwZH1wy97ZJi)"><text transform="matrix(1,0,0,1,69,51.305)" style="font-family:'Open Sans';font-weight:400;font-size:48px;font-style:normal;fill:#000000;stroke:none;">S C A R</text></g><defs><clipPath id="_clipPath_qnwSXtFdCineTSU1SGFOLwZH1wy97ZJi"><rect x="0" y="0" width="250" height="70" transform="matrix(1,0,0,1,69,0)"/></clipPath></defs><g clip-path="url(#_clipPath_sYVElctJnwmWnkFT98AAn4cZuwyYNzkP)"><text transform="matrix(1,0,0,1,119,101.305)" style="font-family:'Open Sans';font-weight:400;font-size:48px;font-style:normal;fill:#000000;stroke:none;">N Z A L E Z</text></g><defs><clipPath id="_clipPath_sYVElctJnwmWnkFT98AAn4cZuwyYNzkP"><rect x="0" y="0" width="270" height="70" transform="matrix(1,0,0,1,119,50)"/></clipPath></defs></g></svg>